<?xml version="1.0" encoding="utf-8"?>
<!-- Generator: Adobe Illustrator 16.0.0, SVG Export Plug-In . SVG Version: 6.00 Build 0)  -->
<!DOCTYPE svg PUBLIC "-//W3C//DTD SVG 1.1//EN" "http://www.w3.org/Graphics/SVG/1.1/DTD/svg11.dtd">
<svg version="1.1" id="Layer_1" xmlns="http://www.w3.org/2000/svg" xmlns:xlink="http://www.w3.org/1999/xlink" x="0px" y="0px"
	 width="154px" height="48px" viewBox="0 0 154 48" enable-background="new 0 0 154 48" xml:space="preserve">
<path fill="#B5E51D" stroke="#000000" stroke-width="2" stroke-miterlimit="10" d="M40.022,42.09c-4-13.25,10.875-23,19.75-28.25
	C72.081,6.559,80.865,3.559,86.245,2.534c11.666-2.223,37.223-1.11,38.889,1.667s7.777,12.223,7.777,12.223s30,3.333,15.556,22.222
	c-6.319,8.264-23.569,7.836-48.944,7.569C71.558,45.921,45.272,46.323,40.022,42.09"/>
<path fill="#FFFFFF" stroke="#000000" stroke-width="2" stroke-miterlimit="10" d="M43.604,16.34
	c-7.354,4.723-11.721,8.791-15.082,17.25c-3.298,8.302,2.878,7.256-1.979,6.952c-4.858-0.303-11.958-0.606-4.858-10.621
	S36.583,15.303,50.189,9.84C55,7.909,68.522,5.59,68.522,5.59S51.199,11.463,43.604,16.34z"/>
<path fill="#FFFFFF" stroke="#000000" stroke-width="2" stroke-miterlimit="10" d="M26.604,16.34
	c-7.354,4.723-11.721,8.791-15.082,17.25c-3.298,8.302,2.878,7.256-1.979,6.952c-4.858-0.303-11.958-0.606-4.858-10.621
	S19.583,15.303,33.189,9.84C38,7.909,51.522,5.59,51.522,5.59S34.199,11.463,26.604,16.34z"/>
</svg>
