<?xml version="1.0" encoding="utf-8"?>
<!-- Generator: Adobe Illustrator 16.0.0, SVG Export Plug-In . SVG Version: 6.00 Build 0)  -->
<!DOCTYPE svg PUBLIC "-//W3C//DTD SVG 1.1//EN" "http://www.w3.org/Graphics/SVG/1.1/DTD/svg11.dtd">
<svg version="1.1" id="Layer_2" xmlns="http://www.w3.org/2000/svg" xmlns:xlink="http://www.w3.org/1999/xlink" x="0px" y="0px"
	 width="24px" height="24px" viewBox="0 0 24 24" enable-background="new 0 0 24 24" xml:space="preserve">
<g>
	<path fill="#445A00" d="M8.14,4.518c0.679-1.537,1.489-2.569,2.762-3.121C10.024,2.81,9.939,3.645,9.811,4.801
		C9.521,4.518,8.612,4.326,8.14,4.518z"/>
	<path fill="#445A00" d="M18.141,6.964c0.514-1.092,0.667-2.86,0.62-4.004c1.435,2.351,0.853,3.685,0.724,4.841
		C19.232,7.286,18.654,6.829,18.141,6.964z"/>
	<path fill="#445A00" d="M20.773,11.868c0.514-1.092,0.604-2.764,0.557-3.908c1.435,2.351,0.986,3.586,0.857,4.743
		C21.936,12.188,21.287,11.733,20.773,11.868z"/>
	<path fill="#445A00" d="M13.493,4.052c0.429-1.414,0.836-2.463,2.099-3.469c0.257,1.82-0.106,2.827-0.426,3.935
		C14.757,4.009,14.071,3.881,13.493,4.052z"/>
	<path fill="#445A00" d="M8.783,4.973c1.301,0.15,1.991,1.713,1.691,3.019s-0.81,3.718-2.762,3.212
		C6.06,10.776,5.999,8.914,6.17,7.8S7.113,4.78,8.783,4.973z"/>
	<path fill="#445A00" d="M4.307,8.849c0.969,0.024,1.791,1.646,1.452,3.425s-1.219,2.396-2.203,2.301s-1.77-1.101-1.58-3.135
		C2.166,9.406,3.451,8.828,4.307,8.849z"/>
	<path fill="#445A00" d="M14.265,4.565c0.966,0.25,1.5,2.056,1.071,3.448s-1.756,2.848-2.956,2.441
		c-1.199-0.407-1.413-2.548-1.006-3.79S13.108,4.266,14.265,4.565z"/>
	<path fill="#445A00" d="M18.611,7.521c0.836,0.391,1.222,2.324,0.472,3.753s-1.928,2.329-2.998,1.9s-1.156-2.035-0.514-3.748
		S17.604,7.049,18.611,7.521z"/>
	<path fill="#445A00" d="M21.503,12.638c0.662,0.452,0.941,2.462-0.193,3.683s-2.248,1.69-3.212,1.049s-0.685-2.483,0.086-3.618
		C18.954,12.617,20.562,11.996,21.503,12.638z"/>
	<path fill="#445A00" d="M2.98,8.698c0.321-1.584,1.489-3.188,2.762-3.739C4.843,6.064,4.757,7.264,4.628,8.42
		C4.201,8.223,3.728,8.308,2.98,8.698z"/>
	<path fill="#445A00" d="M15.913,16.172"/>
	<path fill="#445A00" d="M19.168,19.662c-0.515-1.685-2.483-1.906-3.255-3.49s0.064-1.37-0.621-2.891s-4.397-2.77-6.424-1.565
		c-2.056,1.222-2.313,2.978-3.94,3.642s-2.27,0.022-3.212,1.285s-0.192,3.19,1.092,4.09s3.448-0.15,5.889,0.471
		s2.376,1.734,5.61,2.377S19.554,20.925,19.168,19.662z"/>
</g>
</svg>
