<?xml version="1.0" encoding="utf-8"?>
<!-- Generator: Adobe Illustrator 16.0.0, SVG Export Plug-In . SVG Version: 6.00 Build 0)  -->
<!DOCTYPE svg PUBLIC "-//W3C//DTD SVG 1.1//EN" "http://www.w3.org/Graphics/SVG/1.1/DTD/svg11.dtd">
<svg version="1.1" id="Layer_2" xmlns="http://www.w3.org/2000/svg" xmlns:xlink="http://www.w3.org/1999/xlink" x="0px" y="0px"
	 width="24px" height="24px" viewBox="0 0 24 24" enable-background="new 0 0 24 24" xml:space="preserve">
<g>
	<path fill="#E3A6FF" d="M7.534,5.934C8.699,6.439,8.957,8.238,8.199,9.83c-0.758,1.593-1.608,2.15-2.985,1.84
		c-1.376-0.309-1.299-2.412-0.881-3.572S6.358,5.423,7.534,5.934z"/>
	<path fill="#E3A6FF" d="M12.452,4.341c1.191,0.339,1.794,2.273,0.724,3.966c-1.055,1.672-2.255,1.771-2.904,1.507
		C9.636,9.555,8.803,8.3,9.251,6.707C9.699,5.114,11.214,3.987,12.452,4.341z"/>
	<path fill="#E3A6FF" d="M17.803,6.876c0.894,0.838,0.603,2.752-0.588,3.805c-1.19,1.052-2.49,1.33-3.295,0.604
		c-0.803-0.728-0.818-2.305,0.402-3.728C15.544,6.134,17.045,6.165,17.803,6.876z"/>
	<path fill="#E3A6FF" d="M19.704,12.614c0.68,0.758,0.187,2.645-1.468,3.372c-1.655,0.727-2.396,0.366-2.861-0.263
		c-0.457-0.618-0.389-2.223,1.158-3.183C18.08,11.581,19.103,11.942,19.704,12.614z"/>
	<path fill="#E3A6FF" d="M11.972,11.068c1.577,0.769,4.252,7.872,1.484,8.552c-2.767,0.681-2.272-2.149-4.143-2.799
		c-1.872-0.649-4.9,0.131-5.248-1.052C3.266,13.047,9.978,10.094,11.972,11.068z"/>
</g>
</svg>
